# xmcd
#
# Track frame offsets:
#	150
#	14787
#	31792
#	47467
#	59950
#	79562
#	94065
#	109507
#	123027
#	135385
#	150690
#	164672
#
# Disc length: 2444 seconds
#
# Revision: 0
# Processed by: cddbd v1.4PL0 Copyright (c) Steve Scherf et al.
# Submitted via: audiograbber 1.80.04
#
DISCID=93098a0c
DTITLE=Geyhounds - Top Country und Western Music
DYEAR=1987
DGENRE=Country
TTITLE0=Love's gonna live here
TTITLE1=Together again
TTITLE2=Texas, when I die
TTITLE3=Ring of Fire
TTITLE4=Duelling Banjos
TTITLE5=On the Road again
TTITLE6=Tequila Sheila
TTITLE7=Some broken Hearts
TTITLE8=Rocky Top
TTITLE9=Girls, Woman and Ladies
TTITLE10=Greyhounds Keep Rollin
TTITLE11=Orange Blossom Special
EXTD=Koch Records B 199 036
EXTT0=
EXTT1=
EXTT2=
EXTT3=
EXTT4=
EXTT5=
EXTT6=
EXTT7=
EXTT8=
EXTT9=
EXTT10=
EXTT11=
PLAYORDER=
